# xmcd
#
# Track frame offsets: 
#        183
#        1883
#        15440
#        37238
#        55083
#        67320
#        84110
#        100183
#        115613
#        127783
#        143123
#        160238
#        171035
#
# Disc length: 2424 seconds
#
# Revision: 4
# Processed by: cddbd v1.5.2PL0 Copyright (c) Steve Scherf et al.
# Submitted via: ExactAudioCopy v0.99pb4
#
DISCID=9a09760d
DTITLE=Honey B and T-Bones - Shake Your Shimmy
DYEAR=1992
DGENRE=Blues
TTITLE0=Big Ben
TTITLE1=Wake Up The Neighbours
TTITLE2=Down To The River
TTITLE3=Shake Your Shimmy
TTITLE4=Casting My Spell
TTITLE5=Love's Gone
TTITLE6=Big Cat
TTITLE7=Bumble Bee
TTITLE8=Say No More
TTITLE9=Wasted Valley
TTITLE10=Alien Seafood Plate
TTITLE11=The Drop
TTITLE12=Finlandia
EXTD=
EXTT0=
EXTT1=
EXTT2=
EXTT3=
EXTT4=
EXTT5=
EXTT6=
EXTT7=
EXTT8=
EXTT9=
EXTT10=
EXTT11=
EXTT12=
PLAYORDER=
